<svg width="29" height="30" viewBox="0 0 29 30" fill="none" xmlns="http://www.w3.org/2000/svg">
<path fill-rule="evenodd" clip-rule="evenodd" d="M23.3928 15.3849V7.76078C23.3928 6.56408 22.4382 5.59404 21.2608 5.59404L13.7591 5.59403H13.1402C11.9628 5.59403 11.0083 4.62395 11.0083 3.4273V2.1667C11.0083 0.970064 11.9628 0 13.1402 0H23.7726C26.6027 6.12245e-07 28.8969 2.33167 28.8969 5.20792V16.0139C28.8969 17.2105 27.9424 18.1806 26.765 18.1806H25.5246C24.3472 18.1806 23.3928 17.2105 23.3928 16.0139V15.3849Z" fill="#FF9E0D"></path>
<path fill-rule="evenodd" clip-rule="evenodd" d="M0 11.9981V13.1939C0 14.3993 0.96809 15.383 2.15413 15.383C3.0903 15.3831 3.98083 15.3831 3.99804 15.3831C9.69777 15.3831 13.7604 19.7011 13.7604 25.4939C13.7604 25.5108 13.7605 26.3104 13.7605 27.1788C13.7606 28.3842 14.7284 29.3682 15.9145 29.3682H17.0911H18.5539C19.5679 29.3682 20.4559 28.6431 20.556 27.6177C20.612 27.0435 20.6407 26.4612 20.6407 25.872C20.6407 16.2173 12.9397 8.39062 3.44011 8.39062C2.86042 8.39062 2.28742 8.41977 1.72246 8.47671C0.713464 8.57834 8.46416e-08 9.48091 4.99902e-08 10.5114L0 11.9981Z" fill="#5A4DFF"></path>
</svg>