<svg width="101" height="31" viewBox="0 0 101 31" fill="none" xmlns="http://www.w3.org/2000/svg">
<g clip-path="url(#clip0_354_6540)">
<path fill-rule="evenodd" clip-rule="evenodd" d="M23.4953 16.6895V9.06534C23.4953 7.86865 22.5408 6.8986 21.3634 6.8986L13.8616 6.8986H13.2428C12.0654 6.8986 11.1108 5.92851 11.1108 4.73186V3.47127C11.1108 2.27463 12.0654 1.30457 13.2428 1.30457H23.8752C26.7052 1.30457 28.9995 3.63623 28.9995 6.51249V17.3185C28.9995 18.5151 28.0449 19.4852 26.8675 19.4852H25.6272C24.4498 19.4852 23.4953 18.5151 23.4953 17.3185V16.6895Z" fill="#FF9E0D"></path>
<path fill-rule="evenodd" clip-rule="evenodd" d="M0.102539 13.303V14.4989C0.102539 15.7042 1.07063 16.6879 2.25667 16.6879C3.19283 16.688 4.08337 16.6881 4.10058 16.6881C9.80031 16.6881 13.863 21.006 13.863 26.7989C13.863 26.8157 13.863 27.6153 13.8631 28.4838C13.8631 29.6891 14.831 30.6731 16.017 30.6731H17.1937H18.6565C19.6704 30.6731 20.5584 29.9481 20.6585 28.9226C20.7145 28.3484 20.7432 27.7661 20.7432 27.1769C20.7432 17.5222 13.0422 9.69556 3.54265 9.69556C2.96295 9.69556 2.38995 9.7247 1.825 9.78164C0.816003 9.88327 0.102539 10.7858 0.102539 11.8163L0.102539 13.303Z" fill="#5A4DFF"></path>
<path d="M38.8777 5.74551H40.1362V4.66462C40.1362 2.25065 41.3947 1.24182 43.2913 1.24182C43.628 1.24182 44.0358 1.25984 44.408 1.33189V3.20542H43.6458C42.5468 3.20542 42.2809 3.7819 42.2809 4.66462V5.74551H44.3725V7.583H42.2809V14.6448H40.1362V7.583H38.8777V5.74551Z" fill="black"></path>
<path d="M44.7302 10.2048C44.7302 7.43054 46.6978 5.521 49.4097 5.521C52.1217 5.521 54.0892 7.43054 54.0892 10.2048C54.0892 12.9791 52.1217 14.8887 49.4097 14.8887C46.6978 14.8887 44.7302 12.9791 44.7302 10.2048ZM46.8927 10.2048C46.8927 11.8262 47.9208 12.9251 49.4097 12.9251C50.8987 12.9251 51.9267 11.8262 51.9267 10.2048C51.9267 8.58352 50.8987 7.48461 49.4097 7.48461C47.9208 7.48461 46.8927 8.58352 46.8927 10.2048Z" fill="black"></path>
<path d="M60.6532 5.6471V7.68279H59.8554C58.2956 7.68279 57.3207 8.52946 57.3207 10.2589V14.5824H55.1582V5.70114H57.1966L57.3207 6.99821C57.693 6.11549 58.526 5.521 59.6959 5.521C59.9972 5.521 60.2986 5.55703 60.6532 5.6471Z" fill="black"></path>
<path d="M64.3852 14.6447L61.5491 5.74548H63.8003L64.9521 9.56463C65.1473 10.2672 65.3244 11.0418 65.484 11.8705C65.6436 11.0058 65.8027 10.4473 66.0864 9.56463L67.2918 5.74548H69.49L70.6599 9.56463C70.7659 9.92487 71.1208 11.258 71.2268 11.8525C71.369 11.1859 71.6521 10.1231 71.8117 9.56463L72.9816 5.74548H75.2683L72.237 14.6447H70.2165L69.0111 10.7896C68.6569 9.61863 68.4617 8.77196 68.3906 8.32159C68.3021 8.73596 68.1424 9.36645 67.6997 10.8256L66.4943 14.6447H64.3852Z" fill="black"></path>
<path d="M78.4284 14.8789C76.567 14.8789 75.4326 13.78 75.4326 12.1047C75.4326 10.4653 76.6025 9.43846 78.6766 9.27634L81.3001 9.07816V8.87997C81.3001 7.673 80.5911 7.18663 79.4917 7.18663C78.2157 7.18663 77.5067 7.72706 77.5067 8.66385H75.6633C75.6633 6.73625 77.223 5.47522 79.5983 5.47522C81.9555 5.47522 83.4091 6.77228 83.4091 9.24028V14.6447H81.5127L81.3531 13.3296C80.9808 14.2484 79.7929 14.8789 78.4284 14.8789ZM79.1374 13.2215C80.467 13.2215 81.3176 12.4109 81.3176 11.0417V10.5734L79.4917 10.7175C78.1447 10.8436 77.6308 11.294 77.6308 12.0145C77.6308 12.8252 78.1621 13.2215 79.1374 13.2215Z" fill="black"></path>
<path d="M90.2471 5.70948V7.74512H89.4495C87.8899 7.74512 86.9146 8.59186 86.9146 10.3213V14.6448H84.752V5.76352H86.7905L86.9146 7.06058C87.2869 6.17786 88.12 5.58337 89.2899 5.58337C89.5911 5.58337 89.8923 5.6194 90.2471 5.70948Z" fill="black"></path>
<path d="M94.8393 14.879C92.305 14.879 90.7273 12.9874 90.7273 10.2312C90.7273 7.45689 92.3225 5.47528 94.9634 5.47528C96.1869 5.47528 97.2683 5.99771 97.8177 6.88043V1.24182H99.9622V14.6448H97.9773L97.8351 13.2577C97.3032 14.2845 96.1689 14.879 94.8393 14.879ZM95.3183 12.8613C96.8249 12.8613 97.7996 11.7624 97.7996 10.1591C97.7996 8.55581 96.8249 7.43889 95.3183 7.43889C93.8116 7.43889 92.8899 8.57381 92.8899 10.1591C92.8899 11.7444 93.8116 12.8613 95.3183 12.8613Z" fill="black"></path>
<path d="M43.2518 30.6828C40.6798 30.6828 38.8777 28.7801 38.8777 26.0594C38.8777 23.3032 40.6448 21.4005 43.1818 21.4005C45.7712 21.4005 47.4159 23.1609 47.4159 25.8994V26.5573L40.9073 26.5751C41.0647 28.1222 41.8696 28.9046 43.2868 28.9046C44.459 28.9046 45.2289 28.4422 45.4738 27.6065H47.4509C47.0835 29.5269 45.5088 30.6828 43.2518 30.6828ZM43.1993 23.1787C41.9396 23.1787 41.1697 23.8722 40.9597 25.1881H45.2989C45.2989 23.9789 44.4765 23.1787 43.1993 23.1787Z" fill="black"></path>
<path d="M51.3136 30.6828C49.4765 30.6828 48.3567 29.598 48.3567 27.9443C48.3567 26.3261 49.5115 25.3126 51.5586 25.1525L54.1481 24.9569V24.7613C54.1481 23.5699 53.4482 23.0898 52.3634 23.0898C51.1037 23.0898 50.4038 23.6233 50.4038 24.5479H48.5842C48.5842 22.6453 50.1239 21.4005 52.4684 21.4005C54.7954 21.4005 56.2301 22.6808 56.2301 25.117V30.4516H54.358L54.2005 29.1535C53.8331 30.0604 52.6608 30.6828 51.3136 30.6828ZM52.0135 29.0468C53.3257 29.0468 54.1655 28.2466 54.1655 26.8952V26.4329L52.3634 26.5751C51.0337 26.6996 50.5263 27.1441 50.5263 27.8554C50.5263 28.6556 51.0511 29.0468 52.0135 29.0468Z" fill="black"></path>
<path d="M62.8394 21.6356V23.6449H62.0521C60.5129 23.6449 59.5503 24.4807 59.5503 26.1878V30.4555H57.4158V21.6889H59.4279L59.5503 22.9692C59.9178 22.0979 60.74 21.5111 61.8949 21.5111C62.1925 21.5111 62.4894 21.5466 62.8394 21.6356Z" fill="black"></path>
<path d="M67.4797 30.4516H65.3454V23.4811H63.6833V21.6673H65.3454V18.9288H67.4797V21.6673H69.1593V23.4811H67.4797V30.4516Z" fill="black"></path>
<path d="M72.1177 30.4518H69.9834V17.2219H72.1352V22.8055C72.678 21.9519 73.6924 21.4007 74.9346 21.4007C77.0695 21.4007 78.1894 22.77 78.1894 25.046V30.4518H76.0545V25.5617C76.0545 24.0858 75.337 23.3746 74.2527 23.3746C72.9051 23.3746 72.1177 24.3348 72.1177 25.6506V30.4518Z" fill="black"></path>
</g>
<defs>
<clipPath id="clip0_354_6540">
<rect width="100" height="30" fill="white" transform="translate(0.102539 0.950195)"></rect>
</clipPath>
</defs>
</svg>